<?xml version="1.0" encoding="UTF-8" standalone="no"?>
<!DOCTYPE svg PUBLIC "-//W3C//DTD SVG 1.1//EN" "http://www.w3.org/Graphics/SVG/1.1/DTD/svg11.dtd">
<svg width="456" height="456" viewBox="0 0 456 456" version="1.1" xmlns="http://www.w3.org/2000/svg" xmlns:xlink="http://www.w3.org/1999/xlink" xml:space="preserve" xmlns:serif="http://www.serif.com/" style="fill-rule:evenodd;clip-rule:evenodd;stroke-linejoin:round;stroke-miterlimit:2;">
<path style="fill:#FFFFFF;" d="M105.5,281.6c-2.7,0-5-0.9-6.9-2.7c-1.9-1.8-2.8-4-2.8-6.6c0-2.6,0.9-4.8,2.8-6.7c1.9-1.8,4.2-2.8,6.9-2.8
	c2.7,0,5.1,0.9,7,2.8c1.9,1.8,2.9,4.1,2.9,6.7c0,2.5-1,4.7-2.9,6.6C110.6,280.7,108.2,281.6,105.5,281.6z"/>
<g>
	<g>
		<path style="fill:#6613FF;" d="M111.4,249.2l-32,22.5c-2.3,1.6-5.4,1.6-7.8,0l-32-22.5c-1.8-1.3-2.9-3.3-2.9-5.5v-41c0-3.7,3-6.8,6.8-6.8h64
			c3.7,0,6.8,3,6.8,6.8v41C114.2,245.9,113.2,247.9,111.4,249.2z"/>
	</g>
	<g>
		<path style="fill:#FFFFFF;" d="M75.2,249.3l0.7-0.2c1-0.2,1-1.6,0-1.8l-0.7-0.2c-1.9-0.4-3.3-1.8-3.7-3.7l-0.2-0.7c-0.2-1-1.6-1-1.8,0
			l-0.2,0.7c-0.4,1.9-1.8,3.3-3.7,3.7l-0.7,0.2c-1,0.2-1,1.6,0,1.8l0.7,0.2c1.9,0.4,3.3,1.8,3.7,3.7l0.2,0.7c0.2,1,1.6,1,1.8,0
			l0.2-0.7C71.9,251.1,73.3,249.7,75.2,249.3z"/>
		<path style="fill:#FFFFFF;" d="M72.6,220.3l3.6-0.7c1.7-0.3,1.7-2.7,0-3.1l-3.6-0.7c-3.5-0.7-6.2-3.5-7-7l-0.7-3.6c-0.3-1.7-2.7-1.7-3.1,0
			l-0.7,3.6c-0.7,3.5-3.5,6.2-7,7l-3.6,0.7c-1.7,0.3-1.7,2.7,0,3.1l3.6,0.7c3.5,0.7,6.2,3.5,7,7l0.7,3.6c0.3,1.7,2.7,1.7,3.1,0
			l0.7-3.6C66.4,223.8,69.1,221,72.6,220.3z"/>
		<path style="fill:#FFFFFF;" d="M97.9,232.7l2.7-0.6c1.3-0.3,1.3-2.1,0-2.4l-2.7-0.6c-2.7-0.5-4.8-2.7-5.3-5.3l-0.6-2.7
			c-0.3-1.3-2.1-1.3-2.4,0l-0.6,2.7c-0.5,2.7-2.7,4.8-5.3,5.3l-2.7,0.6c-1.3,0.3-1.3,2.1,0,2.4l2.7,0.6c2.7,0.5,4.8,2.7,5.3,5.3
			l0.6,2.7c0.3,1.3,2.1,1.3,2.4,0l0.6-2.7C93.1,235.3,95.2,233.2,97.9,232.7z"/>
	</g>
	<text transform="matrix(1 0 0 1 140.0953 248.1889)" style="fill:#FFFFFF;font-family:'GilmerHeavy';font-size:44.1467px;" >Magic Pocket</text>
	<g>
		<path style="fill:#BAB1FB;" d="M109.1,272c-0.9,0-1.7-0.8-1.7-1.7v-4.6c0-0.9,0.8-1.7,1.7-1.7c0.9,0,1.7,0.8,1.7,1.7v4.6
			C110.8,271.3,110,272,109.1,272z"/>
		<path style="fill:#BAB1FB;" d="M109.1,284.4c-0.9,0-1.7-0.8-1.7-1.7v-4.6c0-0.9,0.8-1.7,1.7-1.7c0.9,0,1.7,0.8,1.7,1.7v4.6
			C110.8,283.6,110,284.4,109.1,284.4z"/>
		<path style="fill:#BAB1FB;" d="M117.6,275.9H113c-0.9,0-1.7-0.8-1.7-1.7s0.8-1.7,1.7-1.7h4.6c0.9,0,1.7,0.8,1.7,1.7S118.5,275.9,117.6,275.9
			z"/>
		<path style="fill:#BAB1FB;" d="M105.2,275.9h-4.6c-0.9,0-1.7-0.8-1.7-1.7s0.8-1.7,1.7-1.7h4.6c0.9,0,1.7,0.8,1.7,1.7
			S106.2,275.9,105.2,275.9z"/>
	</g>
	<g>
		<path style="fill:#BAB1FB;" d="M24,256.9c-0.9,0-1.7-0.8-1.7-1.7v-4.6c0-0.9,0.8-1.7,1.7-1.7s1.7,0.8,1.7,1.7v4.6
			C25.7,256.1,25,256.9,24,256.9z"/>
		<path style="fill:#BAB1FB;" d="M24,269.2c-0.9,0-1.7-0.8-1.7-1.7v-4.6c0-0.9,0.8-1.7,1.7-1.7s1.7,0.8,1.7,1.7v4.6
			C25.7,268.5,25,269.2,24,269.2z"/>
		<path style="fill:#BAB1FB;" d="M32.5,260.7h-4.6c-0.9,0-1.7-0.8-1.7-1.7s0.8-1.7,1.7-1.7h4.6c0.9,0,1.7,0.8,1.7,1.7S33.5,260.7,32.5,260.7z"
			/>
		<path style="fill:#BAB1FB;" d="M20.2,260.7h-4.6c-0.9,0-1.7-0.8-1.7-1.7s0.8-1.7,1.7-1.7h4.6c0.9,0,1.7,0.8,1.7,1.7S21.1,260.7,20.2,260.7z"
			/>
	</g>
	<g>
		<path style="fill:#BAB1FB;" d="M123.2,184.4c-0.9,0-1.7-0.8-1.7-1.7v-4.6c0-0.9,0.8-1.7,1.7-1.7s1.7,0.8,1.7,1.7v4.6
			C124.9,183.6,124.1,184.4,123.2,184.4z"/>
		<path style="fill:#BAB1FB;" d="M123.2,196.7c-0.9,0-1.7-0.8-1.7-1.7v-4.6c0-0.9,0.8-1.7,1.7-1.7s1.7,0.8,1.7,1.7v4.6
			C124.9,196,124.1,196.7,123.2,196.7z"/>
		<path style="fill:#BAB1FB;" d="M131.6,188.3H127c-0.9,0-1.7-0.8-1.7-1.7s0.8-1.7,1.7-1.7h4.6c0.9,0,1.7,0.8,1.7,1.7S132.6,188.3,131.6,188.3
			z"/>
		<path style="fill:#BAB1FB;" d="M119.3,188.3h-4.6c-0.9,0-1.7-0.8-1.7-1.7s0.8-1.7,1.7-1.7h4.6c0.9,0,1.7,0.8,1.7,1.7
			S120.2,188.3,119.3,188.3z"/>
	</g>
</g>
</svg>
