<?xml version="1.0" encoding="utf-8"?>
<!-- Generator: Adobe Illustrator 27.5.0, SVG Export Plug-In . SVG Version: 6.00 Build 0)  -->
<svg version="1.1" id="Layer_1" xmlns="http://www.w3.org/2000/svg" xmlns:xlink="http://www.w3.org/1999/xlink" x="0px" y="0px"
	 viewBox="0 0 456 456" style="enable-background:new 0 0 456 456;" xml:space="preserve">
<style type="text/css">
	.st0{fill:#1A1A1A;}
	.st1{fill:#6613FF;}
	.st2{fill:#FFFFFF;}
	.st3{fill:#BAB1FB;}
</style>
<g>
	<rect class="st0" width="456" height="456"/>
</g>
<g>
	<g>
		<path class="st1" d="M339.9,286.8l-100.2,70.4c-7.3,5.1-17,5.1-24.3,0l-100.2-70.4c-5.6-4-9-10.4-9-17.3V141.1
			c0-11.7,9.5-21.2,21.2-21.2h200.4c11.7,0,21.2,9.5,21.2,21.2v128.4C348.9,276.4,345.6,282.9,339.9,286.8z"/>
	</g>
	<g>
		<path class="st2" d="M226.7,287.2l2.3-0.5c3.1-0.6,3.1-5,0-5.6l-2.3-0.5c-5.9-1.2-10.5-5.8-11.6-11.6l-0.5-2.3
			c-0.6-3.1-5-3.1-5.6,0l-0.5,2.3c-1.2,5.9-5.8,10.5-11.6,11.6l-2.3,0.5c-3.1,0.6-3.1,5,0,5.6l2.3,0.5c5.9,1.2,10.5,5.8,11.6,11.6
			l0.5,2.3c0.6,3.1,5,3.1,5.6,0l0.5-2.3C216.2,292.9,220.8,288.3,226.7,287.2z"/>
		<path class="st2" d="M218.6,196.4l11.1-2.3c5.3-1.1,5.3-8.6,0-9.7l-11.1-2.3c-11-2.2-19.6-10.8-21.8-21.8l-2.3-11.1
			c-1.1-5.3-8.6-5.3-9.7,0l-2.3,11.1c-2.2,11-10.8,19.6-21.8,21.8l-11.1,2.3c-5.3,1.1-5.3,8.6,0,9.7l11.1,2.3
			c11,2.2,19.6,10.8,21.8,21.8l2.3,11.1c1.1,5.3,8.6,5.3,9.7,0l2.3-11.1C199,207.2,207.6,198.6,218.6,196.4z"/>
		<path class="st2" d="M297.8,235.2l8.6-1.7c4-0.8,4-6.6,0-7.4l-8.6-1.7c-8.4-1.7-15-8.3-16.7-16.7l-1.7-8.6c-0.8-4-6.6-4-7.4,0
			l-1.7,8.6c-1.7,8.4-8.3,15-16.7,16.7l-8.6,1.7c-4,0.8-4,6.6,0,7.4l8.6,1.7c8.4,1.7,15,8.3,16.7,16.7l1.7,8.6c0.8,4,6.6,4,7.4,0
			l1.7-8.6C282.8,243.5,289.4,236.9,297.8,235.2z"/>
	</g>
	<g>
		<path class="st3" d="M332.8,358.4c-2.9,0-5.3-2.4-5.3-5.3v-14.4c0-2.9,2.4-5.3,5.3-5.3c2.9,0,5.3,2.4,5.3,5.3v14.4
			C338.1,356.1,335.8,358.4,332.8,358.4z"/>
		<path class="st3" d="M332.8,397.2c-2.9,0-5.3-2.4-5.3-5.3v-14.4c0-2.9,2.4-5.3,5.3-5.3c2.9,0,5.3,2.4,5.3,5.3v14.4
			C338.1,394.8,335.8,397.2,332.8,397.2z"/>
		<path class="st3" d="M359.4,370.6H345c-2.9,0-5.3-2.4-5.3-5.3c0-2.9,2.4-5.3,5.3-5.3h14.4c2.9,0,5.3,2.4,5.3,5.3
			C364.7,368.2,362.3,370.6,359.4,370.6z"/>
		<path class="st3" d="M320.7,370.6h-14.4c-2.9,0-5.3-2.4-5.3-5.3c0-2.9,2.4-5.3,5.3-5.3h14.4c2.9,0,5.3,2.4,5.3,5.3
			C326,368.2,323.6,370.6,320.7,370.6z"/>
	</g>
	<g>
		<path class="st3" d="M66.4,310.9c-2.9,0-5.3-2.4-5.3-5.3v-14.4c0-2.9,2.4-5.3,5.3-5.3c2.9,0,5.3,2.4,5.3,5.3v14.4
			C71.7,308.5,69.3,310.9,66.4,310.9z"/>
		<path class="st3" d="M66.4,349.6c-2.9,0-5.3-2.4-5.3-5.3v-14.4c0-2.9,2.4-5.3,5.3-5.3c2.9,0,5.3,2.4,5.3,5.3v14.4
			C71.7,347.2,69.3,349.6,66.4,349.6z"/>
		<path class="st3" d="M92.9,323H78.5c-2.9,0-5.3-2.4-5.3-5.3c0-2.9,2.4-5.3,5.3-5.3h14.4c2.9,0,5.3,2.4,5.3,5.3
			C98.2,320.7,95.9,323,92.9,323z"/>
		<path class="st3" d="M54.2,323H39.8c-2.9,0-5.3-2.4-5.3-5.3c0-2.9,2.4-5.3,5.3-5.3h14.4c2.9,0,5.3,2.4,5.3,5.3
			C59.5,320.7,57.1,323,54.2,323z"/>
	</g>
	<g>
		<path class="st3" d="M376.9,83.9c-2.9,0-5.3-2.4-5.3-5.3V64.2c0-2.9,2.4-5.3,5.3-5.3s5.3,2.4,5.3,5.3v14.4
			C382.2,81.5,379.8,83.9,376.9,83.9z"/>
		<path class="st3" d="M376.9,122.6c-2.9,0-5.3-2.4-5.3-5.3v-14.4c0-2.9,2.4-5.3,5.3-5.3s5.3,2.4,5.3,5.3v14.4
			C382.2,120.2,379.8,122.6,376.9,122.6z"/>
		<path class="st3" d="M403.4,96H389c-2.9,0-5.3-2.4-5.3-5.3c0-2.9,2.4-5.3,5.3-5.3h14.4c2.9,0,5.3,2.4,5.3,5.3
			C408.7,93.6,406.3,96,403.4,96z"/>
		<path class="st3" d="M364.7,96h-14.4c-2.9,0-5.3-2.4-5.3-5.3c0-2.9,2.4-5.3,5.3-5.3h14.4c2.9,0,5.3,2.4,5.3,5.3
			C370,93.6,367.6,96,364.7,96z"/>
	</g>
</g>
</svg>
