<?xml version="1.0" encoding="utf-8"?>
<!-- Generator: Adobe Illustrator 27.5.0, SVG Export Plug-In . SVG Version: 6.00 Build 0)  -->
<svg version="1.1" id="Layer_1" xmlns:serif="http://www.serif.com/"
	 xmlns="http://www.w3.org/2000/svg" xmlns:xlink="http://www.w3.org/1999/xlink" x="0px" y="0px" viewBox="0 0 456 456"
	 style="enable-background:new 0 0 456 456;" xml:space="preserve">

<g>
	<rect style="fill:#1A1A1A;" width="456" height="456"/>
</g>
<g>
	<g>
		<path style="fill:#6613FF;" d="M339.4,286.3l-100.2,70.4c-7.3,5.1-17,5.1-24.3,0l-100.2-70.4c-5.6-4-9-10.4-9-17.3V140.6
			c0-11.7,9.5-21.2,21.2-21.2h200.4c11.7,0,21.2,9.5,21.2,21.2V269C348.4,275.9,345.1,282.4,339.4,286.3z"/>
	</g>
	<g>
		<path style="fill:#FFFFFF;" d="M226.2,286.7l2.3-0.5c3.1-0.6,3.1-5,0-5.6l-2.3-0.5c-5.9-1.2-10.5-5.8-11.6-11.6l-0.5-2.3
			c-0.6-3.1-5-3.1-5.6,0l-0.5,2.3c-1.2,5.9-5.8,10.5-11.6,11.6l-2.3,0.5c-3.1,0.6-3.1,5,0,5.6l2.3,0.5c5.9,1.2,10.5,5.8,11.6,11.6
			l0.5,2.3c0.6,3.1,5,3.1,5.6,0l0.5-2.3C215.7,292.4,220.3,287.8,226.2,286.7z"/>
		<path style="fill:#FFFFFF;" d="M218.1,195.9l11.1-2.3c5.3-1.1,5.3-8.6,0-9.7l-11.1-2.3c-11-2.2-19.6-10.8-21.8-21.8l-2.3-11.1
			c-1.1-5.3-8.6-5.3-9.7,0l-2.3,11.1c-2.2,11-10.8,19.6-21.8,21.8l-11.1,2.3c-5.3,1.1-5.3,8.6,0,9.7l11.1,2.3
			c11,2.2,19.6,10.8,21.8,21.8l2.3,11.1c1.1,5.3,8.6,5.3,9.7,0l2.3-11.1C198.5,206.7,207.1,198.1,218.1,195.9z"/>
		<path style="fill:#FFFFFF;" d="M297.3,234.7l8.6-1.7c4-0.8,4-6.6,0-7.4l-8.6-1.7c-8.4-1.7-15-8.3-16.7-16.7l-1.7-8.6c-0.8-4-6.6-4-7.4,0
			l-1.7,8.6c-1.7,8.4-8.3,15-16.7,16.7l-8.6,1.7c-4,0.8-4,6.6,0,7.4l8.6,1.7c8.4,1.7,15,8.3,16.7,16.7l1.7,8.6c0.8,4,6.6,4,7.4,0
			l1.7-8.6C282.3,243,288.9,236.4,297.3,234.7z"/>
	</g>
	<g>
		<path style="fill:#BAB1FB;" d="M332.3,357.9c-2.9,0-5.3-2.4-5.3-5.3v-14.4c0-2.9,2.4-5.3,5.3-5.3c2.9,0,5.3,2.4,5.3,5.3v14.4
			C337.6,355.6,335.3,357.9,332.3,357.9z"/>
		<path style="fill:#BAB1FB;" d="M332.3,396.7c-2.9,0-5.3-2.4-5.3-5.3V377c0-2.9,2.4-5.3,5.3-5.3c2.9,0,5.3,2.4,5.3,5.3v14.4
			C337.6,394.3,335.3,396.7,332.3,396.7z"/>
		<path style="fill:#BAB1FB;" d="M358.9,370.1h-14.4c-2.9,0-5.3-2.4-5.3-5.3c0-2.9,2.4-5.3,5.3-5.3h14.4c2.9,0,5.3,2.4,5.3,5.3
			C364.2,367.7,361.8,370.1,358.9,370.1z"/>
		<path style="fill:#BAB1FB;" d="M320.2,370.1h-14.4c-2.9,0-5.3-2.4-5.3-5.3c0-2.9,2.4-5.3,5.3-5.3h14.4c2.9,0,5.3,2.4,5.3,5.3
			C325.5,367.7,323.1,370.1,320.2,370.1z"/>
	</g>
	<g>
		<path style="fill:#BAB1FB;" d="M65.9,310.4c-2.9,0-5.3-2.4-5.3-5.3v-14.4c0-2.9,2.4-5.3,5.3-5.3c2.9,0,5.3,2.4,5.3,5.3v14.4
			C71.2,308,68.8,310.4,65.9,310.4z"/>
		<path style="fill:#BAB1FB;" d="M65.9,349.1c-2.9,0-5.3-2.4-5.3-5.3v-14.4c0-2.9,2.4-5.3,5.3-5.3c2.9,0,5.3,2.4,5.3,5.3v14.4
			C71.2,346.7,68.8,349.1,65.9,349.1z"/>
		<path style="fill:#BAB1FB;" d="M92.4,322.5H78c-2.9,0-5.3-2.4-5.3-5.3c0-2.9,2.4-5.3,5.3-5.3h14.4c2.9,0,5.3,2.4,5.3,5.3
			C97.7,320.2,95.4,322.5,92.4,322.5z"/>
		<path style="fill:#BAB1FB;" d="M53.7,322.5H39.3c-2.9,0-5.3-2.4-5.3-5.3c0-2.9,2.4-5.3,5.3-5.3h14.4c2.9,0,5.3,2.4,5.3,5.3
			C59,320.2,56.6,322.5,53.7,322.5z"/>
	</g>
	<g>
		<path style="fill:#BAB1FB;" d="M376.4,83.4c-2.9,0-5.3-2.4-5.3-5.3V63.7c0-2.9,2.4-5.3,5.3-5.3s5.3,2.4,5.3,5.3V78
			C381.7,81,379.3,83.4,376.4,83.4z"/>
		<path style="fill:#BAB1FB;" d="M376.4,122.1c-2.9,0-5.3-2.4-5.3-5.3v-14.4c0-2.9,2.4-5.3,5.3-5.3s5.3,2.4,5.3,5.3v14.4
			C381.7,119.7,379.3,122.1,376.4,122.1z"/>
		<path style="fill:#BAB1FB;" d="M402.9,95.5h-14.4c-2.9,0-5.3-2.4-5.3-5.3c0-2.9,2.4-5.3,5.3-5.3h14.4c2.9,0,5.3,2.4,5.3,5.3
			C408.2,93.1,405.8,95.5,402.9,95.5z"/>
		<path style="fill:#BAB1FB;" d="M364.2,95.5h-14.4c-2.9,0-5.3-2.4-5.3-5.3c0-2.9,2.4-5.3,5.3-5.3h14.4c2.9,0,5.3,2.4,5.3,5.3
			C369.5,93.1,367.1,95.5,364.2,95.5z"/>
	</g>
</g>
</svg>
